<svg width="50" height="54" viewBox="0 0 50 54" fill="none" xmlns="http://www.w3.org/2000/svg">
<path d="M24.9594 40.7286C22.0014 37.0166 20.2614 33.7628 19.6814 30.9788C19.1014 28.7168 19.3334 26.9188 20.3194 25.5848C21.3634 24.0188 22.9294 23.2648 24.9594 23.2648C26.9894 23.2648 28.5554 24.0188 29.5994 25.5848C30.5854 26.9188 30.8174 28.7168 30.2374 30.9788C29.5994 33.8208 27.8594 37.0688 24.9594 40.7286ZM45.967 43.2226C45.561 45.9486 43.705 48.2106 41.153 49.3126C36.223 51.4586 31.3452 48.0366 27.1692 43.3966C34.077 34.7488 35.353 28.0208 32.3892 23.665C30.6492 21.171 28.1552 19.953 24.9594 19.953C18.5214 19.953 14.9776 25.405 16.3696 31.7328C17.1816 35.1548 19.3276 39.0466 22.7496 43.3966C20.6036 45.7746 18.5736 47.4566 16.7756 48.5006C15.3836 49.2546 14.0496 49.7186 12.7736 49.8346C6.9156 50.7046 2.3278 45.0206 4.4158 39.1568C4.7058 38.4028 5.2858 37.0108 6.2718 34.8648L6.3298 34.7488C9.5198 27.783 13.4116 19.895 17.8776 11.1312L17.9936 10.8412L19.2696 8.40521C20.2556 6.60721 20.6616 5.79521 22.2276 4.80921C22.9816 4.34521 23.9096 4.11321 24.9536 4.11321C27.0416 4.11321 28.6656 5.33121 29.3616 6.31721C29.7096 6.83921 30.1156 7.53521 30.6376 8.40521L31.8556 10.7832L32.0296 11.1312C36.4956 19.895 40.3874 27.783 43.5774 34.7488L43.6354 34.8068L44.7954 37.4748L45.4914 39.1568C46.025 40.4966 46.141 41.8306 45.967 43.2226ZM48.635 37.9968C48.229 36.7208 47.533 35.2128 46.663 33.4148V33.3568C42.545 24.593 38.7112 16.705 35.0572 9.62321L34.8252 9.27521C32.2152 3.93921 30.3592 0.743408 24.9594 0.743408C19.6234 0.743408 17.3556 4.45541 15.0356 9.27521L14.8616 9.62321C11.2076 16.705 7.3738 24.593 3.2558 33.3568V33.4728L2.0378 36.1408C1.5738 37.2428 1.3418 37.8228 1.2838 37.9968C-1.6742 46.1226 4.4158 53.2566 11.7876 53.2566C11.8456 53.2566 12.0776 53.2566 12.3676 53.1986H13.1796C17.0076 52.7346 20.9574 50.2986 24.9594 45.9428C28.9614 50.2928 32.9112 52.7346 36.7392 53.1986H37.5512C37.8412 53.2566 38.0732 53.2566 38.1312 53.2566C45.503 53.2624 51.593 46.1226 48.635 37.9968Z" fill="white"/>
</svg>
